<?xml version="1.0" encoding="utf-8"?>
<!-- Generator: Adobe Illustrator 27.5.0, SVG Export Plug-In . SVG Version: 6.00 Build 0)  -->
<svg version="1.1" xmlns="http://www.w3.org/2000/svg" xmlns:xlink="http://www.w3.org/1999/xlink" x="0px" y="0px"
	 viewBox="0 0 500 500" style="enable-background:new 0 0 500 500;" xml:space="preserve">
<g id="BACKGROUND">
	<rect style="fill:#FFFFFF;" width="500" height="500"/>
</g>
<g id="OBJECTS">
	<g>
		<g>
			<path style="fill:none;" d="M149.017,229.435c1.288,2.429,2.543,4.951,3.789,7.456c0.667,1.341,1.337,2.685,2.009,4.009h1.834
				c-1.871-3.616-3.776-7.694-5.546-11.465H149.017z"/>
			<path style="fill:none;" d="M211.389,245.475c0.027-0.13,0.06-0.258,0.083-0.389c0.069-0.345,0.134-0.712,0.194-1.099h-4.41
				c-0.137,0.575-0.274,1.004-0.412,1.234c-1.425,2.375-36.844,7.666-42.438,6.241c-1.677-0.427-3.82-3.415-6.098-7.475h-1.89
				c3.493,6.554,7.044,11.873,10.57,11.873c13.445,0,39.907-4.523,43.481-8.097C210.846,247.386,211.145,246.564,211.389,245.475z"
				/>
			<path style="fill:none;" d="M207.801,240.9h4.236c0.174-1.844,0.301-3.821,0.416-5.638c0.122-1.923,0.247-3.894,0.418-5.828
				h-3.877C208.668,233.362,208.253,237.725,207.801,240.9z"/>
			<path style="fill:#E3A645;" d="M151.103,229.435c1.769,3.772,3.675,7.85,5.546,11.465h51.152
				c0.452-3.176,0.867-7.538,1.193-11.465H151.103z"/>
			<path style="fill:#D0665B;" d="M209.572,218.647h-62.17c0.695,1.358,1.451,2.922,2.247,4.6h59.591
				C209.38,221.403,209.494,219.792,209.572,218.647z"/>
			<path style="fill:#9ACCE5;" d="M164.405,252.67c5.594,1.425,41.013-3.867,42.438-6.241c0.138-0.23,0.276-0.658,0.412-1.234
				h-48.948C160.585,249.256,162.728,252.243,164.405,252.67z"/>
			<path style="fill:#434043;" d="M221.023,213.425c-5.104,0-6.952,5.86-7.829,12.923h-3.955h-59.591h-2.322
				c-4.586-8.08-9.698-14.45-16.363-14.45c-0.852,0-1.543,0.691-1.543,1.544c0,0.852,0.691,1.543,1.543,1.543
				c4.748,0,8.955,4.958,12.78,11.363h-0.568c-0.853,0-1.543,0.691-1.543,1.544c0,0.852,0.691,1.544,1.543,1.544h2.329
				c1.572,2.871,3.081,5.902,4.538,8.83c0.443,0.891,0.88,1.767,1.315,2.635h-0.549c-0.853,0-1.543,0.691-1.543,1.543
				c0,0.853,0.691,1.544,1.543,1.544h2.118c4.387,8.474,8.583,14.958,14.062,14.958c9.507,0,29.355-2.584,39.724-6.044
				c-7.617,6.566-22.578,9.506-34.299,11.808c-11.335,2.226-16.809,3.44-17.371,6.675c-0.172,0.99,0.09,1.913,0.757,2.669
				c1.761,1.993,6.272,2.311,8.93,2.311v1.875c-1.518,0.612-2.592,2.094-2.592,3.831c0,2.284,1.851,4.135,4.135,4.135
				c2.284,0,4.135-1.851,4.135-4.135c0-1.737-1.074-3.219-2.592-3.831v-1.912h34.056v1.912c-1.518,0.612-2.592,2.094-2.592,3.831
				c0,2.284,1.851,4.135,4.135,4.135c2.284,0,4.135-1.851,4.135-4.135c0-1.737-1.074-3.219-2.592-3.831v-1.912h8.066
				c0.852,0,1.543-0.69,1.543-1.543c0-0.853-0.691-1.543-1.543-1.543l-9.607,0c-0.001,0-0.001,0-0.002,0s-0.001,0-0.002,0
				l-37.131,0.001c-0.003,0-0.006-0.001-0.01-0.001c-0.003,0-0.006,0.001-0.01,0.001h-0.064c-4.1,0.202-7.798-0.542-8.127-1.285
				c0.699-1.423,8.928-3.039,14.937-4.22c16.398-3.22,38.789-7.628,41.46-21.915c0.017-0.08,0.034-0.161,0.05-0.244
				c0.008-0.049,0.022-0.096,0.03-0.146c0.001-0.008,0-0.015,0.001-0.022c0.087-0.449,0.167-0.921,0.24-1.425h1.349
				c0.853,0,1.544-0.691,1.544-1.544c0-0.853-0.691-1.543-1.544-1.543h-1.001c0.146-1.619,0.268-3.429,0.396-5.442
				c0.121-1.903,0.253-3.973,0.441-6.023h1.079c0.853,0,1.544-0.691,1.544-1.544c0-0.853-0.691-1.544-1.544-1.544h-0.742
				c0.693-5.336,1.964-9.836,4.711-9.836c0.852,0,1.544-0.691,1.544-1.543C222.567,214.116,221.876,213.425,221.023,213.425z
				 M156.417,243.987h1.89h48.948h4.41c-0.06,0.387-0.125,0.753-0.194,1.099c-0.023,0.132-0.056,0.259-0.083,0.389
				c-0.244,1.089-0.543,1.91-0.921,2.288c-3.574,3.573-30.036,8.097-43.481,8.097C163.461,255.86,159.91,250.542,156.417,243.987z
				 M212.453,235.263c-0.116,1.817-0.242,3.794-0.416,5.638h-4.236h-51.152h-1.834c-0.673-1.324-1.343-2.668-2.009-4.009
				c-1.246-2.506-2.501-5.027-3.789-7.456h2.087h57.89h3.877C212.701,231.368,212.575,233.34,212.453,235.263z"/>
		</g>
		<g>
			<g>
				
					<text transform="matrix(1 0 0 1 243.0164 246.7378)" style="fill:#434043; font-family:'Poppins-ExtraBoldItalic'; font-size:39.1306px;">Smart</text>
				
					<text transform="matrix(1 0 0 1 243.0154 272.9087)" style="fill:#E3A645; font-family:'Poppins-Regular'; font-size:26.5614px;">Shopping</text>
			</g>
			
				<line style="fill:none;stroke:#434043;stroke-width:0.7717;stroke-linecap:round;stroke-linejoin:round;stroke-miterlimit:10;" x1="231.097" y1="223.247" x2="231.097" y2="271.732"/>
		</g>
	</g>
</g>
</svg>
